<mxfile host="app.diagrams.net" modified="2023-07-28T16:27:46.618Z" agent="Mozilla/5.0 (Macintosh; Intel Mac OS X 10_15_7) AppleWebKit/605.1.15 (KHTML, like Gecko) Version/16.5.2 Safari/605.1.15" etag="UAwoiD4U9wKWS52Fnyq5" version="21.6.5" type="github">
  <diagram name="Page-1" id="PJw18gTDL8AQlg1JheF6">
    <mxGraphModel dx="1434" dy="1902" grid="1" gridSize="10" guides="1" tooltips="1" connect="1" arrows="1" fold="1" page="1" pageScale="1" pageWidth="850" pageHeight="1100" math="0" shadow="0">
      <root>
        <mxCell id="0" />
        <mxCell id="1" parent="0" />
        <mxCell id="pbarQM4ci1pmViBrcnMr-9" value="" style="whiteSpace=wrap;html=1;aspect=fixed;" parent="1" vertex="1">
          <mxGeometry x="500" y="40" width="450" height="450" as="geometry" />
        </mxCell>
        <mxCell id="pbarQM4ci1pmViBrcnMr-13" style="edgeStyle=orthogonalEdgeStyle;rounded=0;orthogonalLoop=1;jettySize=auto;html=1;entryX=0.5;entryY=0;entryDx=0;entryDy=0;" parent="1" target="pbarQM4ci1pmViBrcnMr-12" edge="1">
          <mxGeometry relative="1" as="geometry">
            <mxPoint x="820" y="-70" as="sourcePoint" />
            <mxPoint x="900" y="130" as="targetPoint" />
            <Array as="points">
              <mxPoint x="820" y="10" />
              <mxPoint x="860" y="10" />
            </Array>
          </mxGeometry>
        </mxCell>
        <mxCell id="pbarQM4ci1pmViBrcnMr-3" value="" style="whiteSpace=wrap;html=1;aspect=fixed;" parent="1" vertex="1">
          <mxGeometry x="710" y="-330" width="290" height="290" as="geometry" />
        </mxCell>
        <mxCell id="pbarQM4ci1pmViBrcnMr-18" style="edgeStyle=orthogonalEdgeStyle;rounded=0;orthogonalLoop=1;jettySize=auto;html=1;entryX=0;entryY=0.5;entryDx=0;entryDy=0;" parent="1" source="pbarQM4ci1pmViBrcnMr-1" target="pbarQM4ci1pmViBrcnMr-17" edge="1">
          <mxGeometry relative="1" as="geometry">
            <Array as="points">
              <mxPoint x="190" y="420" />
            </Array>
          </mxGeometry>
        </mxCell>
        <mxCell id="pbarQM4ci1pmViBrcnMr-1" value="" style="whiteSpace=wrap;html=1;aspect=fixed;" parent="1" vertex="1">
          <mxGeometry x="70" y="40" width="240" height="240" as="geometry" />
        </mxCell>
        <mxCell id="pbarQM4ci1pmViBrcnMr-8" style="edgeStyle=orthogonalEdgeStyle;rounded=0;orthogonalLoop=1;jettySize=auto;html=1;exitX=1;exitY=0.5;exitDx=0;exitDy=0;" parent="1" source="pbarQM4ci1pmViBrcnMr-2" target="pbarQM4ci1pmViBrcnMr-7" edge="1">
          <mxGeometry relative="1" as="geometry" />
        </mxCell>
        <mxCell id="pbarQM4ci1pmViBrcnMr-2" value="Login" style="rounded=1;whiteSpace=wrap;html=1;" parent="1" vertex="1">
          <mxGeometry x="130" y="130" width="120" height="60" as="geometry" />
        </mxCell>
        <mxCell id="pbarQM4ci1pmViBrcnMr-4" value="WEB" style="text;html=1;strokeColor=none;fillColor=none;align=center;verticalAlign=middle;whiteSpace=wrap;rounded=0;" parent="1" vertex="1">
          <mxGeometry x="160" width="60" height="30" as="geometry" />
        </mxCell>
        <mxCell id="pbarQM4ci1pmViBrcnMr-5" value="API" style="text;html=1;strokeColor=none;fillColor=none;align=center;verticalAlign=middle;whiteSpace=wrap;rounded=0;" parent="1" vertex="1">
          <mxGeometry x="590" width="60" height="30" as="geometry" />
        </mxCell>
        <mxCell id="pbarQM4ci1pmViBrcnMr-11" style="edgeStyle=orthogonalEdgeStyle;rounded=0;orthogonalLoop=1;jettySize=auto;html=1;entryX=0.5;entryY=1;entryDx=0;entryDy=0;" parent="1" target="pbarQM4ci1pmViBrcnMr-22" edge="1">
          <mxGeometry relative="1" as="geometry">
            <mxPoint x="650" y="160" as="sourcePoint" />
            <mxPoint x="760" y="-70" as="targetPoint" />
            <Array as="points">
              <mxPoint x="710" y="160" />
              <mxPoint x="710" y="10" />
              <mxPoint x="780" y="10" />
            </Array>
          </mxGeometry>
        </mxCell>
        <mxCell id="pbarQM4ci1pmViBrcnMr-7" value="POST /api/auth" style="rounded=1;whiteSpace=wrap;html=1;" parent="1" vertex="1">
          <mxGeometry x="560" y="130" width="120" height="60" as="geometry" />
        </mxCell>
        <mxCell id="pbarQM4ci1pmViBrcnMr-10" value="Slack API" style="text;html=1;strokeColor=none;fillColor=none;align=center;verticalAlign=middle;whiteSpace=wrap;rounded=0;" parent="1" vertex="1">
          <mxGeometry x="810" y="-370" width="60" height="30" as="geometry" />
        </mxCell>
        <mxCell id="pbarQM4ci1pmViBrcnMr-15" style="edgeStyle=orthogonalEdgeStyle;rounded=0;orthogonalLoop=1;jettySize=auto;html=1;exitX=0.5;exitY=1;exitDx=0;exitDy=0;entryX=1;entryY=0.5;entryDx=0;entryDy=0;" parent="1" source="pbarQM4ci1pmViBrcnMr-12" target="pbarQM4ci1pmViBrcnMr-14" edge="1">
          <mxGeometry relative="1" as="geometry">
            <mxPoint x="845" y="220" as="sourcePoint" />
            <mxPoint x="790" y="270" as="targetPoint" />
            <Array as="points">
              <mxPoint x="860" y="265" />
            </Array>
          </mxGeometry>
        </mxCell>
        <mxCell id="pbarQM4ci1pmViBrcnMr-25" style="edgeStyle=orthogonalEdgeStyle;rounded=0;orthogonalLoop=1;jettySize=auto;html=1;entryX=1;entryY=0.5;entryDx=0;entryDy=0;" parent="1" source="pbarQM4ci1pmViBrcnMr-12" target="pbarQM4ci1pmViBrcnMr-23" edge="1">
          <mxGeometry relative="1" as="geometry">
            <Array as="points">
              <mxPoint x="1120" y="160" />
              <mxPoint x="1120" y="-250" />
            </Array>
          </mxGeometry>
        </mxCell>
        <mxCell id="pbarQM4ci1pmViBrcnMr-27" style="edgeStyle=orthogonalEdgeStyle;rounded=0;orthogonalLoop=1;jettySize=auto;html=1;entryX=1;entryY=0.5;entryDx=0;entryDy=0;" parent="1" source="pbarQM4ci1pmViBrcnMr-12" target="pbarQM4ci1pmViBrcnMr-24" edge="1">
          <mxGeometry relative="1" as="geometry">
            <Array as="points">
              <mxPoint x="1030" y="150" />
              <mxPoint x="1030" y="-150" />
            </Array>
          </mxGeometry>
        </mxCell>
        <mxCell id="pbarQM4ci1pmViBrcnMr-12" value="GET /api/callback/slack" style="rounded=1;whiteSpace=wrap;html=1;" parent="1" vertex="1">
          <mxGeometry x="800" y="130" width="120" height="60" as="geometry" />
        </mxCell>
        <mxCell id="pbarQM4ci1pmViBrcnMr-16" style="edgeStyle=orthogonalEdgeStyle;rounded=0;orthogonalLoop=1;jettySize=auto;html=1;entryX=1;entryY=0.75;entryDx=0;entryDy=0;" parent="1" edge="1">
          <mxGeometry relative="1" as="geometry">
            <mxPoint x="730" y="265" as="sourcePoint" />
            <mxPoint x="310" y="190" as="targetPoint" />
            <Array as="points">
              <mxPoint x="440" y="270" />
              <mxPoint x="440" y="190" />
            </Array>
          </mxGeometry>
        </mxCell>
        <mxCell id="pbarQM4ci1pmViBrcnMr-14" value="Core Auth Callback Handler" style="rounded=1;whiteSpace=wrap;html=1;" parent="1" vertex="1">
          <mxGeometry x="670" y="235" width="120" height="60" as="geometry" />
        </mxCell>
        <mxCell id="pbarQM4ci1pmViBrcnMr-17" value="GET /api/users/me" style="rounded=1;whiteSpace=wrap;html=1;" parent="1" vertex="1">
          <mxGeometry x="665" y="390" width="120" height="60" as="geometry" />
        </mxCell>
        <mxCell id="pbarQM4ci1pmViBrcnMr-19" value="&lt;h1&gt;Slack Auth Callback Handler&lt;/h1&gt;&lt;p&gt;- Validate authenticity&lt;/p&gt;&lt;p&gt;- Fetch token for user&lt;/p&gt;&lt;p&gt;- Fetch user data&lt;/p&gt;&lt;p&gt;- Format user data into type specified by core handler&lt;/p&gt;&lt;p&gt;- Call core handler&lt;/p&gt;" style="text;html=1;strokeColor=none;fillColor=none;spacing=5;spacingTop=-20;whiteSpace=wrap;overflow=hidden;rounded=0;" parent="1" vertex="1">
          <mxGeometry x="1200" y="-10" width="260" height="240" as="geometry" />
        </mxCell>
        <mxCell id="pbarQM4ci1pmViBrcnMr-20" value="&lt;h1&gt;Core Auth Callback Handler&lt;/h1&gt;&lt;p&gt;- Accept data from unknown callback handler (generic type needed for core, necessary data)&lt;/p&gt;&lt;p&gt;- Lookup user based on authId&lt;/p&gt;&lt;p&gt;- If no user exists, create one&lt;/p&gt;&lt;p&gt;- Create a session for the user&lt;br&gt;&lt;/p&gt;&lt;p&gt;- Redirect back to a specified page in the web app (/login/callback)&lt;/p&gt;" style="text;html=1;strokeColor=none;fillColor=none;spacing=5;spacingTop=-20;whiteSpace=wrap;overflow=hidden;rounded=0;" parent="1" vertex="1">
          <mxGeometry x="1200" y="260" width="260" height="240" as="geometry" />
        </mxCell>
        <mxCell id="pbarQM4ci1pmViBrcnMr-22" value="Sign In With Slack" style="rounded=1;whiteSpace=wrap;html=1;" parent="1" vertex="1">
          <mxGeometry x="720" y="-230" width="120" height="60" as="geometry" />
        </mxCell>
        <mxCell id="pbarQM4ci1pmViBrcnMr-23" value="Token For User" style="rounded=1;whiteSpace=wrap;html=1;" parent="1" vertex="1">
          <mxGeometry x="860" y="-280" width="120" height="60" as="geometry" />
        </mxCell>
        <mxCell id="pbarQM4ci1pmViBrcnMr-24" value="User Info" style="rounded=1;whiteSpace=wrap;html=1;" parent="1" vertex="1">
          <mxGeometry x="860" y="-180" width="120" height="60" as="geometry" />
        </mxCell>
        <mxCell id="pbarQM4ci1pmViBrcnMr-26" value="1" style="text;html=1;align=center;verticalAlign=middle;resizable=0;points=[];autosize=1;strokeColor=none;fillColor=none;" parent="1" vertex="1">
          <mxGeometry x="1125" y="-70" width="30" height="30" as="geometry" />
        </mxCell>
        <mxCell id="pbarQM4ci1pmViBrcnMr-28" value="2" style="text;html=1;align=center;verticalAlign=middle;resizable=0;points=[];autosize=1;strokeColor=none;fillColor=none;" parent="1" vertex="1">
          <mxGeometry x="1030" y="-20" width="30" height="30" as="geometry" />
        </mxCell>
        <mxCell id="pbarQM4ci1pmViBrcnMr-29" value="3" style="text;html=1;align=center;verticalAlign=middle;resizable=0;points=[];autosize=1;strokeColor=none;fillColor=none;" parent="1" vertex="1">
          <mxGeometry x="860" y="220" width="30" height="30" as="geometry" />
        </mxCell>
      </root>
    </mxGraphModel>
  </diagram>
</mxfile>
